# xmcd CD database file
#
# Track frame offsets:
#	182
#	39020
#	51472
#	69160
#	92960
#	100755
#	112580
#	139317
#	160592
#	187617
#	204530
#	230462
#	253202
#	290475
#	305007
#
# Disc length: 4448 seconds
#
# Revision: 2
# Processed by: cddbd v1.5.1PL2 Copyright (c) Steve Scherf et al.
# Submitted via: CDex 1.51
#
DISCID=c6115e0f
DTITLE=松岡直也 - PLAY 4 YOU
DYEAR=1992
DGENRE=Fusion
TTITLE0=SEASON OF LOVE,A
TTITLE1=ISLAND A GO-GO
TTITLE2=GRAVY WALTZ
TTITLE3=SUNSPOT DANCE
TTITLE4=NONO
TTITLE5=DO NOTHIN’TILL YOU HEAR FROM ME
TTITLE6=MYSTERY OF GALLEON
TTITLE7=AIRY
TTITLE8=CUBAN FANTASY
TTITLE9=LONG FOR THE EAST
TTITLE10=NIGHT SONG
TTITLE11=TANGO RENGUE
TTITLE12=MANTECA
TTITLE13=SEPTEMBER WIND,THE
TTITLE14=ANDALUSIA
EXTD=YEAR: 1992
EXTT0=
EXTT1=
EXTT2=
EXTT3=
EXTT4=
EXTT5=
EXTT6=
EXTT7=
EXTT8=
EXTT9=
EXTT10=
EXTT11=
EXTT12=
EXTT13=
EXTT14=
PLAYORDER=
